<mxfile host="app.diagrams.net" agent="Mozilla/5.0 (Windows NT 10.0; Win64; x64) AppleWebKit/537.36 (KHTML, like Gecko) Chrome/136.0.0.0 Safari/537.36" version="27.0.6">
  <diagram name="PaginÄƒ-1" id="eGAIjwTNTdXCNXli_ctP">
    <mxGraphModel dx="1429" dy="1927" grid="1" gridSize="10" guides="1" tooltips="1" connect="1" arrows="1" fold="1" page="1" pageScale="1" pageWidth="827" pageHeight="1169" math="0" shadow="0">
      <root>
        <mxCell id="0" />
        <mxCell id="1" parent="0" />
        <mxCell id="o5nAKtbmiNaNS8kTWH4B-1" style="edgeStyle=orthogonalEdgeStyle;rounded=0;orthogonalLoop=1;jettySize=auto;html=1;exitX=0.5;exitY=0.5;exitDx=0;exitDy=0;exitPerimeter=0;entryX=0.5;entryY=1;entryDx=0;entryDy=0;endArrow=none;startFill=0;" edge="1" parent="1" source="o5nAKtbmiNaNS8kTWH4B-2" target="o5nAKtbmiNaNS8kTWH4B-4">
          <mxGeometry relative="1" as="geometry" />
        </mxCell>
        <mxCell id="o5nAKtbmiNaNS8kTWH4B-2" value="Administrator" style="shape=umlActor;verticalLabelPosition=bottom;verticalAlign=top;html=1;outlineConnect=0;" vertex="1" parent="1">
          <mxGeometry x="260" y="266.255" width="30" height="60" as="geometry" />
        </mxCell>
        <mxCell id="o5nAKtbmiNaNS8kTWH4B-3" style="edgeStyle=orthogonalEdgeStyle;rounded=0;orthogonalLoop=1;jettySize=auto;html=1;exitX=0.5;exitY=0;exitDx=0;exitDy=0;entryX=0.25;entryY=1;entryDx=0;entryDy=0;dashed=1;endArrow=open;endFill=0;" edge="1" parent="1" source="o5nAKtbmiNaNS8kTWH4B-4" target="o5nAKtbmiNaNS8kTWH4B-6">
          <mxGeometry relative="1" as="geometry" />
        </mxCell>
        <mxCell id="o5nAKtbmiNaNS8kTWH4B-4" value="" style="rounded=0;whiteSpace=wrap;html=1;rotation=90;" vertex="1" parent="1">
          <mxGeometry x="370" y="221.255" width="105" height="145" as="geometry" />
        </mxCell>
        <mxCell id="o5nAKtbmiNaNS8kTWH4B-5" value="Start" style="ellipse;whiteSpace=wrap;html=1;" vertex="1" parent="1">
          <mxGeometry x="365" y="271.255" width="120" height="60" as="geometry" />
        </mxCell>
        <mxCell id="o5nAKtbmiNaNS8kTWH4B-36" style="edgeStyle=orthogonalEdgeStyle;rounded=0;orthogonalLoop=1;jettySize=auto;html=1;exitX=0.5;exitY=0;exitDx=0;exitDy=0;entryX=0.5;entryY=1;entryDx=0;entryDy=0;dashed=1;" edge="1" parent="1" source="o5nAKtbmiNaNS8kTWH4B-6" target="o5nAKtbmiNaNS8kTWH4B-21">
          <mxGeometry relative="1" as="geometry" />
        </mxCell>
        <mxCell id="o5nAKtbmiNaNS8kTWH4B-38" style="edgeStyle=orthogonalEdgeStyle;rounded=0;orthogonalLoop=1;jettySize=auto;html=1;exitX=0.5;exitY=0;exitDx=0;exitDy=0;entryX=0;entryY=0.5;entryDx=0;entryDy=0;dashed=1;" edge="1" parent="1" source="o5nAKtbmiNaNS8kTWH4B-6" target="o5nAKtbmiNaNS8kTWH4B-31">
          <mxGeometry relative="1" as="geometry" />
        </mxCell>
        <mxCell id="o5nAKtbmiNaNS8kTWH4B-6" value="" style="rounded=0;whiteSpace=wrap;html=1;rotation=90;" vertex="1" parent="1">
          <mxGeometry x="501.26" y="287.5" width="320" height="145" as="geometry" />
        </mxCell>
        <mxCell id="o5nAKtbmiNaNS8kTWH4B-8" value="Vizualizare clienti" style="ellipse;whiteSpace=wrap;html=1;" vertex="1" parent="1">
          <mxGeometry x="601.26" y="211.255" width="120" height="80" as="geometry" />
        </mxCell>
        <mxCell id="o5nAKtbmiNaNS8kTWH4B-9" style="edgeStyle=orthogonalEdgeStyle;rounded=0;orthogonalLoop=1;jettySize=auto;html=1;exitX=0.5;exitY=0;exitDx=0;exitDy=0;entryX=0.805;entryY=0.997;entryDx=0;entryDy=0;entryPerimeter=0;dashed=1;endArrow=open;endFill=0;" edge="1" parent="1" source="o5nAKtbmiNaNS8kTWH4B-4" target="o5nAKtbmiNaNS8kTWH4B-6">
          <mxGeometry relative="1" as="geometry" />
        </mxCell>
        <mxCell id="o5nAKtbmiNaNS8kTWH4B-19" value="Vizualizare produse" style="ellipse;whiteSpace=wrap;html=1;" vertex="1" parent="1">
          <mxGeometry x="601.26" y="320" width="120" height="80" as="geometry" />
        </mxCell>
        <mxCell id="o5nAKtbmiNaNS8kTWH4B-20" value="Vizualizare comenzi" style="ellipse;whiteSpace=wrap;html=1;" vertex="1" parent="1">
          <mxGeometry x="601.26" y="420" width="120" height="80" as="geometry" />
        </mxCell>
        <mxCell id="o5nAKtbmiNaNS8kTWH4B-21" value="" style="rounded=0;whiteSpace=wrap;html=1;rotation=90;" vertex="1" parent="1">
          <mxGeometry x="721.26" y="10" width="390" height="145" as="geometry" />
        </mxCell>
        <mxCell id="o5nAKtbmiNaNS8kTWH4B-22" value="Adaugare client" style="ellipse;whiteSpace=wrap;html=1;" vertex="1" parent="1">
          <mxGeometry x="856.26" y="-110" width="120" height="80" as="geometry" />
        </mxCell>
        <mxCell id="o5nAKtbmiNaNS8kTWH4B-23" value="Editare client" style="ellipse;whiteSpace=wrap;html=1;" vertex="1" parent="1">
          <mxGeometry x="856.26" y="-20" width="120" height="80" as="geometry" />
        </mxCell>
        <mxCell id="o5nAKtbmiNaNS8kTWH4B-24" value="Stergere client" style="ellipse;whiteSpace=wrap;html=1;" vertex="1" parent="1">
          <mxGeometry x="856.26" y="80" width="120" height="80" as="geometry" />
        </mxCell>
        <mxCell id="o5nAKtbmiNaNS8kTWH4B-25" value="Vizualizare clienti" style="ellipse;whiteSpace=wrap;html=1;" vertex="1" parent="1">
          <mxGeometry x="856.26" y="173.76" width="120" height="80" as="geometry" />
        </mxCell>
        <mxCell id="o5nAKtbmiNaNS8kTWH4B-26" value="" style="rounded=0;whiteSpace=wrap;html=1;rotation=90;" vertex="1" parent="1">
          <mxGeometry x="970" y="300" width="390" height="145" as="geometry" />
        </mxCell>
        <mxCell id="o5nAKtbmiNaNS8kTWH4B-27" value="Adaugare produs" style="ellipse;whiteSpace=wrap;html=1;" vertex="1" parent="1">
          <mxGeometry x="1105" y="180" width="120" height="80" as="geometry" />
        </mxCell>
        <mxCell id="o5nAKtbmiNaNS8kTWH4B-28" value="Editare produs" style="ellipse;whiteSpace=wrap;html=1;" vertex="1" parent="1">
          <mxGeometry x="1105" y="270" width="120" height="80" as="geometry" />
        </mxCell>
        <mxCell id="o5nAKtbmiNaNS8kTWH4B-29" value="Stergere produs" style="ellipse;whiteSpace=wrap;html=1;" vertex="1" parent="1">
          <mxGeometry x="1105" y="370" width="120" height="80" as="geometry" />
        </mxCell>
        <mxCell id="o5nAKtbmiNaNS8kTWH4B-30" value="Vizualizare produse" style="ellipse;whiteSpace=wrap;html=1;" vertex="1" parent="1">
          <mxGeometry x="1105" y="463.76" width="120" height="80" as="geometry" />
        </mxCell>
        <mxCell id="o5nAKtbmiNaNS8kTWH4B-31" value="" style="rounded=0;whiteSpace=wrap;html=1;rotation=90;" vertex="1" parent="1">
          <mxGeometry x="800" y="532.5" width="190" height="145" as="geometry" />
        </mxCell>
        <mxCell id="o5nAKtbmiNaNS8kTWH4B-32" value="Adaugare comanda" style="ellipse;whiteSpace=wrap;html=1;" vertex="1" parent="1">
          <mxGeometry x="835" y="520" width="120" height="80" as="geometry" />
        </mxCell>
        <mxCell id="o5nAKtbmiNaNS8kTWH4B-33" value="Vizualizare comenzi" style="ellipse;whiteSpace=wrap;html=1;" vertex="1" parent="1">
          <mxGeometry x="835" y="610" width="120" height="80" as="geometry" />
        </mxCell>
        <mxCell id="o5nAKtbmiNaNS8kTWH4B-37" style="edgeStyle=orthogonalEdgeStyle;rounded=0;orthogonalLoop=1;jettySize=auto;html=1;exitX=0.5;exitY=0;exitDx=0;exitDy=0;entryX=0.468;entryY=0.994;entryDx=0;entryDy=0;entryPerimeter=0;dashed=1;" edge="1" parent="1" source="o5nAKtbmiNaNS8kTWH4B-6" target="o5nAKtbmiNaNS8kTWH4B-26">
          <mxGeometry relative="1" as="geometry" />
        </mxCell>
      </root>
    </mxGraphModel>
  </diagram>
</mxfile>
